<?xml version="1.0" encoding="UTF-8"?>
<svg version="1.1" xmlns="http://www.w3.org/2000/svg" width="1280" height="720">
<path d="M0 0 C4.16280523 3.46900436 5.71067353 8.1117641 6.51953125 13.390625 C8.00127042 32.91006904 3.57744465 49.00484621 -8 65 C-9.90844378 67.16792518 -11.85174751 69.06133312 -14 71 C-10.24677497 73.50215002 -8.46104376 73.28543314 -4 73 C-1.46053207 72.45563955 1.062198 71.82764897 3.5625 71.125 C4.82191406 70.77695312 6.08132813 70.42890625 7.37890625 70.0703125 C10.61296438 69.11439888 13.80946127 68.09137072 17 67 C17.10957031 65.99839844 17.21914063 64.99679687 17.33203125 63.96484375 C19.21742275 47.78257725 19.21742275 47.78257725 24 43 C26.09375 42.734375 26.09375 42.734375 28.5 42.75 C29.2940625 42.74484375 30.088125 42.7396875 30.90625 42.734375 C33 43 33 43 35 45 C35.01171875 46.953125 35.01171875 46.953125 34.6875 49.25 C34.52507812 50.47009766 34.52507812 50.47009766 34.359375 51.71484375 C34.09111 53.42065922 33.77614961 55.11925195 33.4375 56.8125 C32.58088541 63.05354916 32.16455953 69.91099906 34 76 C39.49100742 75.56071941 42.5814698 74.24025548 47 71 C48.11375 70.505 48.11375 70.505 49.25 70 C51.54374885 68.68928637 51.91052321 67.38323047 53 65 C53.60457031 64.25878906 54.20914062 63.51757812 54.83203125 62.75390625 C57.09908644 59.87413344 58.87916156 56.93518615 60.6875 53.75 C63.9121813 48.0878187 63.9121813 48.0878187 65 47 C67.21484375 46.796875 67.21484375 46.796875 69.9375 46.75 C70.83339844 46.72421875 71.72929688 46.6984375 72.65234375 46.671875 C73.42707031 46.78015625 74.20179688 46.8884375 75 47 C77.83743782 51.25615673 76.78815001 55.07001962 76.27734375 59.93164062 C75.87754667 64.47826917 76.25162798 67.78139024 78 72 C82.58090801 71.69876115 86.36933083 71.27184016 90.625 69.4375 C94.38719892 67.83508194 96.95135369 67.60307389 101 68 C103 70 103 70 103.125 73.625 C103.08375 74.73875 103.0425 75.8525 103 77 C93.0801985 83.01617591 84.62370408 84.9711711 73 84 C68.19672184 82.37031634 65.4104815 79.71140634 62 76 C61.11248047 76.70576172 61.11248047 76.70576172 60.20703125 77.42578125 C52.09263654 83.81934184 47.10254433 87.12452043 36.625 87.25 C34.69527344 87.28867187 34.69527344 87.28867187 32.7265625 87.328125 C28.68418077 86.97219202 26.35151579 86.27388977 23 84 C21.625 81.3125 21.625 81.3125 21 79 C19.91460938 79.34933594 18.82921875 79.69867188 17.7109375 80.05859375 C16.26569339 80.51844415 14.82037703 80.97806755 13.375 81.4375 C12.66214844 81.66759766 11.94929687 81.89769531 11.21484375 82.13476562 C-0.3449144 85.79358816 -12.88586819 87.2342425 -24.14453125 81.97265625 C-24.75683594 81.65167969 -25.36914062 81.33070313 -26 81 C-26.66 80.67 -27.32 80.34 -28 80 C-30.29994969 80.73837877 -30.29994969 80.73837877 -32.8125 81.875 C-40.42886704 85.17043264 -47.74089593 85.7281326 -56 85 C-61.48841085 82.59280226 -63.41607176 79.16785647 -66 74 C-66.60585938 74.58007812 -67.21171875 75.16015625 -67.8359375 75.7578125 C-82.28533736 89.22909914 -82.28533736 89.22909914 -91.8125 89.625 C-95.23097745 89.40741657 -97.01285973 88.99357013 -100.125 87.4375 C-102.52142114 84.32215252 -102.77641602 81.87545563 -103 78 C-103.76441406 78.28875 -104.52882813 78.5775 -105.31640625 78.875 C-113.89419891 81.84780901 -124.27641621 84.66244103 -133.140625 81.15234375 C-139.31771475 76.55072386 -142.13610957 67.15903371 -144 60 C-144 59.01 -144 58.02 -144 57 C-145.23310435 57.89040537 -146.46126564 58.78765704 -147.6875 59.6875 C-148.37199219 60.18636719 -149.05648437 60.68523437 -149.76171875 61.19921875 C-153.3075222 64.05195067 -156.36329677 67.2885127 -159.39453125 70.67578125 C-165.70219185 77.55408643 -165.70219185 77.55408643 -169.28515625 78.78515625 C-172.48528072 78.92273169 -174.55297141 78.35524325 -177.0546875 76.3671875 C-179.42191067 73.48659063 -180.48935272 70.751798 -181.75 67.25 C-182.17796875 66.07953125 -182.6059375 64.9090625 -183.046875 63.703125 C-183.51867187 62.36507812 -183.51867187 62.36507812 -184 61 C-186.25378731 60.76895498 -186.25378731 60.76895498 -188.13671875 63.0546875 C-194.40952976 69.99032233 -200.04803404 77.08005673 -204.875 85.125 C-207.80872435 87.71358031 -210.07154146 87.52011411 -213.87890625 87.46875 C-216.48192489 86.89349726 -217.37955751 86.08835141 -219 84 C-220.21540879 80.35377364 -220.16223982 76.98838833 -220.16796875 73.19140625 C-220.17129715 72.42827621 -220.17462555 71.66514618 -220.17805481 70.87889099 C-220.18311409 69.26586509 -220.18546344 67.65282875 -220.18530273 66.03979492 C-220.18748875 63.57518232 -220.20565332 61.11101777 -220.22460938 58.64648438 C-220.22754362 57.07812653 -220.22952821 55.50976656 -220.23046875 53.94140625 C-220.23765427 53.20588028 -220.24483978 52.47035431 -220.25224304 51.71253967 C-220.23575573 48.01093481 -220.18461926 45.08075018 -218 42 C-214.89138092 40.44569046 -211.34175253 40.11327755 -208 41 C-204.48027019 45.04847846 -204.63459883 49.20810484 -204.8125 54.3125 C-204.82603516 55.05306641 -204.83957031 55.79363281 -204.85351562 56.55664062 C-204.88864021 58.37141075 -204.94244028 60.18580288 -205 62 C-204.35933594 61.18015625 -203.71867188 60.3603125 -203.05859375 59.515625 C-192.81124569 46.63233515 -192.81124569 46.63233515 -185.265625 45.640625 C-181.26899241 45.45030916 -178.13136542 45.34499897 -174.625 47.375 C-172.11118636 51.43577588 -170.01483123 55.67306736 -168 60 C-167.360625 59.34 -166.72125 58.68 -166.0625 58 C-151.99664086 44.01406051 -151.99664086 44.01406051 -141.9375 43.4375 C-137.86003054 43.58366392 -136.39272306 43.72182117 -133 46.125 C-130.24079941 50.39107028 -129.26301492 55.58293793 -128.08984375 60.46484375 C-126.8593044 64.45637819 -125.1796684 67.45180799 -123 71 C-121.92621094 70.71125 -120.85242188 70.4225 -119.74609375 70.125 C-118.31001239 69.74955389 -116.87380779 69.37457895 -115.4375 69 C-114.73302734 68.80921875 -114.02855469 68.6184375 -113.30273438 68.421875 C-108.72939791 67.24165914 -104.72223635 66.80143027 -100 67 C-99.73058594 66.26136719 -99.46117187 65.52273438 -99.18359375 64.76171875 C-93.98601638 52.63403822 -81.49304464 42.81084906 -70 37 C-66.57008462 35.85669487 -63.8013584 35.79618349 -60.1875 35.75 C-58.98480469 35.72421875 -57.78210938 35.6984375 -56.54296875 35.671875 C-52.64393397 36.03297635 -50.27327957 36.86992553 -47 39 C-45.960366 42.4246767 -45.34143236 44.6389602 -46.9375 47.9375 C-51.20926179 50.13810456 -55.96251152 49.26408798 -60.4375 48.125 C-66.80866626 47.90145031 -70.74426309 52.03881386 -75.36328125 56.0546875 C-81.36611317 61.72458925 -86.36345789 68.09037367 -89 76 C-88.32195312 75.443125 -87.64390625 74.88625 -86.9453125 74.3125 C-83.96714213 71.8705653 -80.98409501 69.43469038 -78 67 C-77.07058594 66.23816406 -76.14117188 65.47632813 -75.18359375 64.69140625 C-74.31863281 63.98886719 -73.45367188 63.28632813 -72.5625 62.5625 C-71.78003906 61.92441406 -70.99757813 61.28632813 -70.19140625 60.62890625 C-66.31488298 57.74742638 -63.73767536 56.73266503 -58.875 56.8125 C-58.00617188 56.81894531 -57.13734375 56.82539063 -56.2421875 56.83203125 C-54 57 -54 57 -52 58 C-51.40234375 60.87109375 -51.40234375 60.87109375 -50.9375 64.4375 C-50.45941296 68.86703702 -50.45941296 68.86703702 -49 73 C-43.54520815 72.43179252 -39.08940744 71.05362055 -34 69 C-34.0721875 68.44054687 -34.144375 67.88109375 -34.21875 67.3046875 C-36.71782163 45.71548539 -33.72719183 23.57540042 -20 6 C-14.41145819 -0.241748 -8.2016415 -1.62097339 0 0 Z M-9 14 C-18.23574243 27.10054542 -21.48870493 41.19854072 -21 57 C-16.26288789 55.42096263 -15.0128046 51.60275884 -12.6484375 47.3828125 C-7.88560715 37.60885259 -5.40058203 24.69306029 -8 14 C-8.33 14 -8.66 14 -9 14 Z " fill="#000000" transform="translate(831,312)"/>
<path d="M0 0 C6.11368472 3.08240735 11.37102633 3.60625572 18.1875 3.625 C19.55032104 3.64046875 19.55032104 3.64046875 20.94067383 3.65625 C26.49108804 3.54047639 28.95650959 2.77714715 33.1875 -1 C43.0293716 -3.27120114 53.47379317 -2.28982623 62.375 2.5 C68.3821599 6.38642134 73.89770278 12.13060834 76.1875 19 C77.09095382 25.19511189 74.93251468 29.18482634 72.0859375 34.64453125 C69.04670637 38.41542913 65.70908585 38.80244079 61.05859375 39.40625 C49.39343627 39.72475259 36.71153611 37.26201805 26.1875 32 C16.01330122 31.00763972 6.16028582 30.32839132 -3.8125 33 C-4.56660156 33.18820312 -5.32070313 33.37640625 -6.09765625 33.5703125 C-6.66355469 33.71210938 -7.22945313 33.85390625 -7.8125 34 C-7.8125 34.66 -7.8125 35.32 -7.8125 36 C-8.46347656 36.47695313 -9.11445313 36.95390625 -9.78515625 37.4453125 C-13.02852081 41.5323268 -12.35221702 45.81690633 -12.25 50.875 C-12.25708984 51.85597656 -12.26417969 52.83695312 -12.27148438 53.84765625 C-12.22333301 59.33691243 -11.84099234 63.255362 -8.8125 68 C-8.35488281 68.74765625 -7.89726562 69.4953125 -7.42578125 70.265625 C-6.55146957 71.59940979 -5.67645821 72.93273617 -4.80078125 74.265625 C-3.8125 76 -3.8125 76 -3.8125 78 C-3.1525 78 -2.4925 78 -1.8125 78 C1.56358128 84.6114925 2.07957224 90.06001426 0.4375 97.3125 C-1.02546244 100.45786925 -1.90484717 102.06156478 -4.8125 104 C-7.84265873 104.32447296 -10.7780432 104.23341975 -13.8125 104 C-13.8125 104.66 -13.8125 105.32 -13.8125 106 C-25.63184902 106.77872724 -25.63184902 106.77872724 -29.75 104.0625 C-30.430625 103.051875 -31.11125 102.04125 -31.8125 101 C-32.57820313 100.01773438 -32.57820313 100.01773438 -33.359375 99.015625 C-37.43445974 93.54336834 -39.03610359 88.72221704 -39.8125 82 C-39.94527344 81.01515625 -40.07804687 80.0303125 -40.21484375 79.015625 C-40.85248095 73.37002819 -40.80811277 68.69048424 -39.3671875 63.203125 C-37.10923993 54.23493886 -38.20834068 46.39633146 -40.4296875 37.5390625 C-42.43237309 29.06194131 -43.0580032 19.88195284 -38.375 12.1875 C-28.96855512 -0.03187696 -14.51026814 -7.91979797 0 0 Z " fill="#000000" transform="translate(375.8125,277)"/>
<path d="M0 0 C1.02939697 -0.02610352 2.05879395 -0.05220703 3.11938477 -0.07910156 C10.24930514 -0.09581744 10.24930514 -0.09581744 13.62109375 2.2109375 C14.9375 4.375 14.9375 4.375 14.9375 7.375 C15.98097595 7.36833817 17.0244519 7.36167633 18.09954834 7.35481262 C27.9286536 7.2940232 37.75772076 7.24903778 47.58697128 7.21956348 C52.64041726 7.20390109 57.69371161 7.18265226 62.74707031 7.14868164 C67.62296288 7.11610878 72.49870949 7.09815131 77.37470245 7.09036827 C79.23586576 7.08482104 81.097021 7.07398877 82.95812225 7.05780983 C85.56307803 7.03606307 88.16742913 7.03303191 90.77246094 7.03442383 C91.54354187 7.023638 92.3146228 7.01285217 93.10906982 7.0017395 C96.32007119 7.02033051 98.57551151 7.17479411 101.41265869 8.74394226 C102.9375 10.375 102.9375 10.375 103.5 12.8125 C102.9375 15.375 102.9375 15.375 101 17.75 C97.43353582 19.64240957 95.57771485 19.20972116 91.68579102 18.69042969 C86.27252048 18.06913223 80.81755191 17.99642807 75.375 17.8125 C73.15632328 17.73468687 70.93765521 17.65662723 68.71899414 17.57836914 C67.62776749 17.53998428 66.53654083 17.50159943 65.4122467 17.46205139 C64.59558029 17.43332443 63.77891388 17.40459747 62.9375 17.375 C63.0297808 24.70758892 63.13708834 32.03984716 63.25488281 39.37207031 C63.29318354 41.86681112 63.32803446 44.36160736 63.359375 46.85644531 C63.40500124 50.44095685 63.4630006 54.0250864 63.5234375 57.609375 C63.53498871 58.72616638 63.54653992 59.84295776 63.55844116 60.99359131 C63.57831085 62.03436829 63.59818054 63.07514526 63.61865234 64.14746094 C63.63197601 65.06235291 63.64529968 65.97724487 63.6590271 66.91986084 C63.9535621 69.51661055 64.72070816 71.09148744 65.9375 73.375 C66.1875 76.5 66.1875 76.5 65.9375 79.375 C63.44709058 81.86540942 62.50595643 81.69891014 59.0625 81.75 C55.68398614 81.67199679 54.2727257 81.58758215 51.375 79.75 C48.77534103 75.45491127 48.81242536 70.65679652 48.82397461 65.73681641 C48.82408791 64.11581528 48.82408791 64.11581528 48.82420349 62.46206665 C48.82936478 61.31185028 48.83452606 60.16163391 48.83984375 58.9765625 C48.8412587 57.78646576 48.84267365 56.59636902 48.84413147 55.37020874 C48.8497158 51.58011328 48.86226549 47.79007752 48.875 44 C48.88001702 41.4257821 48.88457958 38.85156328 48.88867188 36.27734375 C48.89968011 29.97654223 48.91640269 23.67577538 48.9375 17.375 C47.14348755 17.39856567 47.14348755 17.39856567 45.31323242 17.42260742 C40.87970707 17.47687061 36.44621112 17.5113369 32.01245117 17.53979492 C30.09280462 17.5548898 28.1731926 17.57536773 26.25366211 17.60131836 C23.49584436 17.63767109 20.7384822 17.65471912 17.98046875 17.66796875 C17.12100143 17.68345261 16.26153412 17.69893646 15.37602234 17.71488953 C14.57541885 17.71511612 13.77481537 17.71534271 12.94995117 17.71557617 C11.89405037 17.72556892 11.89405037 17.72556892 10.81681824 17.73576355 C8.30592137 17.25375893 7.42518278 16.43370409 5.9375 14.375 C5.9375 13.055 5.9375 11.735 5.9375 10.375 C5.18654053 10.43558594 4.43558105 10.49617188 3.66186523 10.55859375 C0.23313274 10.83359042 -3.19592323 11.10433154 -6.625 11.375 C-8.39713867 11.51808594 -8.39713867 11.51808594 -10.20507812 11.6640625 C-15.84002415 12.10601905 -21.40966392 12.5078126 -27.0625 12.375 C-27.01609375 12.93445313 -26.9696875 13.49390625 -26.921875 14.0703125 C-26.66915622 19.68427959 -27.4644151 24.34833041 -29.078125 29.7421875 C-29.44711914 30.9885498 -29.81611328 32.23491211 -30.19628906 33.51904297 C-30.48213867 34.46150879 -30.76798828 35.40397461 -31.0625 36.375 C-30.1245459 36.19324219 -29.1865918 36.01148438 -28.22021484 35.82421875 C-24.72127716 35.14771852 -21.22096982 34.47854999 -17.72021484 33.81152344 C-16.20876686 33.52248932 -14.69769126 33.23150054 -13.18701172 32.93847656 C-11.00845105 32.51626375 -8.82862302 32.10122998 -6.6484375 31.6875 C-5.97944427 31.55625732 -5.31045105 31.42501465 -4.6211853 31.28979492 C5.46963906 29.39642604 5.46963906 29.39642604 9.9375 32.375 C10.19410094 35.45421132 10.33181504 37.58636993 8.9375 40.375 C6.50756836 41.12109375 6.50756836 41.12109375 3.27734375 41.8125 C2.0975293 42.06692871 0.91771484 42.32135742 -0.29785156 42.58349609 C-1.56081055 42.84469238 -2.82376953 43.10588867 -4.125 43.375 C-5.3944043 43.6426416 -6.66380859 43.9102832 -7.97167969 44.18603516 C-16.9717164 46.04411466 -25.90842389 47.55056457 -35.0625 48.375 C-35.74057607 51.706131 -36.40451046 55.0398469 -37.0625 58.375 C-37.371875 59.921875 -37.371875 59.921875 -37.6875 61.5 C-38.68067797 68.76653314 -38.68067797 68.76653314 -36.0625 75.375 C-15.99172131 73.71222438 -15.99172131 73.71222438 1.9375 65.375 C5.07161302 63.28559132 5.91200472 63.10135588 9.5 63.125 C10.67755859 63.11726563 10.67755859 63.11726563 11.87890625 63.109375 C13.9375 63.375 13.9375 63.375 15.9375 65.375 C16.07060213 68.8356553 15.86872347 71.27033949 13.57421875 73.9921875 C0.43210264 84.85483593 -22.90612549 88.38225748 -39.55859375 87.6875 C-43.05823079 87.25072783 -45.2847822 86.58292954 -48.0625 84.375 C-52.95059817 77.80463428 -53.69345686 71.31454045 -53.0625 63.375 C-52.23181697 58.9945959 -51.19762696 54.68577975 -50.0625 50.375 C-51.12791016 50.28412109 -51.12791016 50.28412109 -52.21484375 50.19140625 C-53.13394531 50.10761719 -54.05304688 50.02382813 -55 49.9375 C-55.91652344 49.85628906 -56.83304687 49.77507812 -57.77734375 49.69140625 C-60.0625 49.375 -60.0625 49.375 -61.0625 48.375 C-61.52674385 43.03619578 -61.52674385 43.03619578 -59.90234375 40.72265625 C-57.39784526 38.88815098 -55.45046974 38.86840998 -52.375 38.6875 C-51.38113281 38.62175781 -50.38726562 38.55601562 -49.36328125 38.48828125 C-48.22439453 38.43220703 -48.22439453 38.43220703 -47.0625 38.375 C-44.74256154 31.08859134 -42.58713563 23.87112516 -41.0625 16.375 C-41.866875 16.705 -42.67125 17.035 -43.5 17.375 C-47.65356368 18.54091261 -51.77664393 19.17216923 -56.0625 18.375 C-58.0625 15.375 -58.0625 15.375 -58.0625 12.9375 C-56.61951429 9.23984911 -54.46725146 8.34452977 -51.0625 6.375 C-48.49932696 5.51592996 -46.1212334 4.82524876 -43.5 4.25 C-42.76531494 4.08532227 -42.03062988 3.92064453 -41.27368164 3.75097656 C-27.68601755 0.88264325 -13.8533551 0.20494057 0 0 Z " fill="#000000" transform="translate(515.0625,317.625)"/>
<path d="M0 0 C1.87800062 0.54540788 3.74101994 1.14390662 5.58984375 1.78125 C11.23369812 3.57720337 16.85054181 4.86318706 22.66796875 5.96484375 C23.52090515 6.12719009 24.37384155 6.28953644 25.25262451 6.45680237 C28.78966941 7.1241021 32.32833933 7.78149513 35.86987305 8.42456055 C60.30905309 12.89184133 60.30905309 12.89184133 67.94140625 22.25390625 C69.88352768 25.45733164 70.05299245 27.59877145 69.5625 31.3125 C67.28095032 38.17073509 60.64290335 41.8343598 54.52882385 44.96635437 C51.75852727 46.32976092 48.96849194 47.64513661 46.1640625 48.93676758 C43.99457722 49.94000767 41.84125987 50.97326869 39.6875 52.00976562 C38.29253125 52.66330696 36.89672433 53.31506285 35.5 53.96484375 C34.54963867 54.42406471 34.54963867 54.42406471 33.58007812 54.89256287 C28.76705515 57.0686897 25.1698637 57.35660184 20 57 C19.01 56.505 19.01 56.505 18 56 C17.89866205 66.46032842 17.96727203 76.77328571 18.9765625 87.19140625 C18.98429687 88.11824219 18.99203125 89.04507813 19 90 C16.58513057 92.41486943 15.87292211 92.2961925 12.5625 92.3125 C11.38880859 92.33763672 11.38880859 92.33763672 10.19140625 92.36328125 C8 92 8 92 6.2890625 90.8359375 C-2.11464391 78.86702231 2.66744405 51.58290229 4.3125 38.0625 C4.43004639 37.08684082 4.54759277 36.11118164 4.66870117 35.10595703 C6.67013676 20.32986324 6.67013676 20.32986324 11 16 C10.41508789 15.86424561 9.83017578 15.72849121 9.22753906 15.58862305 C6.56590066 14.96491702 3.90803502 14.32638032 1.25 13.6875 C0.32960938 13.47416016 -0.59078125 13.26082031 -1.5390625 13.04101562 C-2.42851562 12.82509766 -3.31796875 12.60917969 -4.234375 12.38671875 C-5.05131836 12.19295654 -5.86826172 11.99919434 -6.70996094 11.79956055 C-9.28202836 10.90153061 -10.98558793 9.82815573 -13 8 C-13.4375 5.5 -13.4375 5.5 -13 3 C-9.54194815 -1.49223558 -5.18992834 -0.56862686 0 0 Z M17 17 C17.99 17.33 18.98 17.66 20 18 C20.22055843 24.50647383 19.51465952 30.47454288 18.4453125 36.890625 C17.90488105 40.66416391 17.85088033 44.19744844 18 48 C23.34634629 45.89190969 28.57376233 43.54788678 33.8125 41.1875 C34.77220703 40.76146484 35.73191406 40.33542969 36.72070312 39.89648438 C45.27277446 36.15598611 45.27277446 36.15598611 53 31 C53.33 30.01 53.66 29.02 54 28 C49.73085787 22.67696922 45.41383175 21.62359776 38.875 20.25 C37.93954346 20.04028564 37.00408691 19.83057129 36.0402832 19.61450195 C29.73210498 18.24368314 23.46849433 17.16663569 17 17 Z " fill="#000000" transform="translate(384,315)"/>
<path d="M0 0 C9.09383439 6.25201115 13.53028658 14.40252767 16 25.0625 C16.47661487 29.47745884 16.40925698 33.64593513 16 38.0625 C15.9278125 38.97128906 15.855625 39.88007813 15.78125 40.81640625 C14.89640195 47.4024912 12.04910137 51.7555828 7 56.0625 C1.66470737 57.84093088 -4.0609246 57.83604761 -9.203125 55.37109375 C-17.00925935 49.68619156 -21.62152598 40.9661624 -23.1875 31.6875 C-24.51497663 21.75392487 -24.62832017 12.94288097 -19.1875 4.125 C-13.40006077 -1.33172841 -7.40393118 -2.31372849 0 0 Z " fill="#000000" transform="translate(355,215.9375)"/>
<path d="M0 0 C7.66769438 3.41352507 16.37183635 10.03433275 20.69140625 17.30078125 C21.4765625 19.359375 21.4765625 19.359375 22.3515625 23.046875 C22.5784375 23.871875 22.8053125 24.696875 23.0390625 25.546875 C24.18437007 34.70933557 24.18437007 34.70933557 21.2890625 39.359375 C15.9431232 44.25034075 12.28663286 45.33062569 5.1640625 45.109375 C-7.18297718 43.76422733 -17.36718005 36.83017228 -25.0859375 27.265625 C-28.72876773 21.58709553 -29.600855 14.90182486 -29.7109375 8.296875 C-28.23448755 3.78067514 -25.48918741 1.69016247 -21.6484375 -0.953125 C-15.35106392 -4.10181179 -6.41859561 -1.98513266 0 0 Z " fill="#000000" transform="translate(311.6484375,252.953125)"/>
<path d="M0 0 C6.55051717 7.26252991 7.38820592 14.95922966 7.3046875 24.54296875 C6.36763282 30.46203084 4.59404875 35.2536075 0.3046875 39.54296875 C-0.28570312 40.15398437 -0.87609375 40.765 -1.484375 41.39453125 C-4.67726073 44.48879502 -6.78725707 46.34838544 -11.1953125 47.29296875 C-17.06427092 46.0353348 -21.10765039 43.5441749 -24.83984375 38.83984375 C-28.62791772 32.10903443 -29.33411124 23.69752645 -28.16796875 16.11328125 C-26.22546848 9.56046916 -23.24129955 3.71607885 -17.6953125 -0.45703125 C-12.30253699 -2.8145809 -4.7702536 -4.09978017 0 0 Z " fill="#000000" transform="translate(407.6953125,232.45703125)"/>
<path d="M0 0 C5.77429566 2.05386533 10.93213117 6.31634032 13.921875 11.68359375 C15.04705063 16.64713447 14.68354553 21.15469244 12.046875 25.55859375 C7.47747349 31.00080229 0.43951042 32.65808157 -6.328125 33.74609375 C-14.82804399 34.24111744 -23.89755394 31.07837079 -30.390625 25.55859375 C-33.5867624 21.85139884 -34.21745038 18.07751849 -34.3359375 13.265625 C-33.94442704 9.34458837 -32.8238388 7.49627618 -30.078125 4.68359375 C-20.69558138 -2.10810942 -11.30038716 -2.99006595 0 0 Z " fill="#000000" transform="translate(319.078125,309.31640625)"/>
<path d="M0 0 C-0.12586633 6.04158368 -1.9892793 8.66155129 -6.2109375 12.91015625 C-8.15249682 14.99500319 -8.15249682 14.99500319 -9.390625 17.9140625 C-11.2549629 21.48888517 -13.38940559 23.61728532 -16.375 26.3125 C-17.31085937 27.17488281 -18.24671875 28.03726562 -19.2109375 28.92578125 C-21.98846098 30.99141846 -23.56132423 31.87592407 -27 32 C-27.66 31.34 -28.32 30.68 -29 30 C-28.9375 27.5625 -28.9375 27.5625 -28 25 C-23.96551724 22 -23.96551724 22 -21 22 C-21 21.34 -21 20.68 -21 20 C-20.278125 19.484375 -19.55625 18.96875 -18.8125 18.4375 C-15.52880925 15.59163469 -13.99033274 12.74396614 -12.015625 8.92578125 C-11 7 -11 7 -10 6 C-11.26972656 6.20496094 -12.53945313 6.40992188 -13.84765625 6.62109375 C-22.06136259 7.91917486 -30.26611367 9.18637736 -38.5625 9.8125 C-40.32787109 9.94591797 -40.32787109 9.94591797 -42.12890625 10.08203125 C-45 10 -45 10 -48 8 C-47.34 6.35 -46.68 4.7 -46 3 C-44.65808594 2.92652344 -44.65808594 2.92652344 -43.2890625 2.8515625 C-36.88459482 2.45555064 -30.76276422 1.85684277 -24.5 0.4765625 C-6.07239819 -3.0361991 -6.07239819 -3.0361991 0 0 Z " fill="#000000" transform="translate(886,261)"/>
<path d="M0 0 C4.16233612 1.12495571 7.56380992 3.44283529 11 6 C11 6.66 11 7.32 11 8 C11.56847656 8.22945312 12.13695312 8.45890625 12.72265625 8.6953125 C15.59355712 10.34004816 17.28866356 12.36492069 19.4375 14.875 C22.40394511 18.33155343 25.36706696 21.2448656 29 24 C28.67 25.32 28.34 26.64 28 28 C26.31640625 28.7265625 26.31640625 28.7265625 24 29 C21.52734375 27.5234375 21.52734375 27.5234375 18.9375 25.375 C18.08027344 24.68148438 17.22304688 23.98796875 16.33984375 23.2734375 C14.00184955 21.00179705 12.61454679 18.80749085 11 16 C10.34 15.67 9.68 15.34 9 15 C9 14.34 9 13.68 9 13 C7.68 12.34 6.36 11.68 5 11 C4.16224684 17.10363017 3.67654738 23.19155775 3.28125 29.33984375 C3 32 3 32 2 33 C-0.5 33.125 -0.5 33.125 -3 33 C-4 32 -4 32 -4.06933594 29.16430664 C-3.99428648 25.8481125 -3.9156572 22.5324867 -3.81298828 19.21704102 C-3.7503691 17.07512507 -3.70888014 14.93344135 -3.66796875 12.79101562 C-3.62891149 11.43485755 -3.58858874 10.07873521 -3.546875 8.72265625 C-3.51432617 7.48265869 -3.48177734 6.24266113 -3.44824219 4.96508789 C-3.30032227 3.98660889 -3.15240234 3.00812988 -3 2 C-2.01 1.34 -1.02 0.68 0 0 Z " fill="#000000" transform="translate(791,240)"/>
<path d="M0 0 C0.99 0.66 1.98 1.32 3 2 C2.67 3.32 2.34 4.64 2 6 C0.35 6.33 -1.3 6.66 -3 7 C-1.02 8.32 0.96 9.64 3 11 C2.67 12.32 2.34 13.64 2 15 C-1.27393604 16.09868574 -3.0443488 15.9040331 -6.25 14.6875 C-9.32431018 13.56262823 -12.29697 12.6740189 -15.5 12 C-16.655 11.67 -17.81 11.34 -19 11 C-19.33 10.01 -19.66 9.02 -20 8 C-19.67 7.34 -19.34 6.68 -19 6 C-15.9375 5.375 -15.9375 5.375 -13 5 C-13 3.68 -13 2.36 -13 1 C-8.24291273 -0.97245082 -5.02207144 -1.13707278 0 0 Z " fill="#000000" transform="translate(865,313)"/>
<path d="M0 0 C0.6875 1.8125 0.6875 1.8125 1 4 C0 5.68359375 0 5.68359375 -2 7 C-5.1875 7.66015625 -5.1875 7.66015625 -9 8.0625 C-15.39227793 8.78838299 -21.6861281 9.76610404 -28 11 C-28.66 9.68 -29.32 8.36 -30 7 C-26.89063941 2.33595911 -22.27704203 2.18329215 -17 1 C-11.31197426 -0.09768918 -5.76901818 -0.10446914 0 0 Z " fill="#000000" transform="translate(880,300)"/>
<path d="M0 0 C0.33 1.65 0.66 3.3 1 5 C-4.52655055 7.00965474 -9.3666337 7.14578617 -15.23046875 6.97265625 C-17.93321706 6.87701405 -17.93321706 6.87701405 -20.17578125 7.62109375 C-20.77777344 7.74613281 -21.37976563 7.87117188 -22 8 C-22.99 7.34 -23.98 6.68 -25 6 C-25 4.68 -25 3.36 -25 2 C-20.71595221 -0.05399551 -16.61463206 -0.45171424 -11.9375 -0.6875 C-11.23044922 -0.73455078 -10.52339844 -0.78160156 -9.79492188 -0.83007812 C-6.35240783 -1.02725499 -3.28628437 -1.13526187 0 0 Z " fill="#000000" transform="translate(800,311)"/>
<path d="M0 0 C7.41437534 -0.1031366 14.6564425 -0.10153363 22 1 C23 2 23 2 23.0625 4.5625 C23.041875 5.366875 23.02125 6.17125 23 7 C19.30726746 8.21253904 15.97687118 7.99850782 12.125 7.75 C10.93132813 7.68296875 9.73765625 7.6159375 8.5078125 7.546875 C4.81629511 6.97136004 2.23038781 5.8374683 -1 4 C-0.67 2.68 -0.34 1.36 0 0 Z " fill="#000000" transform="translate(774,291)"/>
<path d="M0 0 C0.66 0.66 1.32 1.32 2 2 C1.625 4.125 1.625 4.125 1 6 C-2.73437848 6.87867729 -6.16774573 7.08912219 -10 7 C-10.33 5.68 -10.66 4.36 -11 3 C-7.49767764 -0.36222947 -4.74066269 -0.43895025 0 0 Z " fill="#000000" transform="translate(796,301)"/>
</svg>
