<?xml version="1.0" encoding="UTF-8"?>
<svg version="1.1" xmlns="http://www.w3.org/2000/svg" width="240" height="200">
<path d="M0 0 C2.34992336 4.69984673 1.78595289 11.61606705 0.17578125 16.5 C-1.24023692 19.3636204 -2.73712386 21.73712386 -5 24 C-1.7 23.67 1.6 23.34 5 23 C5.33 20.36 5.66 17.72 6 15 C8.475 14.505 8.475 14.505 11 14 C12.53166168 18.08443115 11.63081652 21.79455657 11 26 C14.54028626 24.28043239 16.42216267 22.57107664 18.5 19.3125 C19.73046875 17.453125 19.73046875 17.453125 21 16 C23.8125 15.5625 23.8125 15.5625 26 16 C26.495 19.96 26.495 19.96 27 24 C30.96 23.505 30.96 23.505 35 23 C35 24.32 35 25.64 35 27 C31.85388747 29.09740836 31.08811922 29.25328219 27.5 29.1875 C26.7265625 29.18105469 25.953125 29.17460937 25.15625 29.16796875 C23 29 23 29 20 28 C19.05125 28.474375 18.1025 28.94875 17.125 29.4375 C13.99374199 31.00312901 12.42271135 31.47537658 9 31 C8.01 30.01 8.01 30.01 7 29 C3.80427282 29.01855635 3.80427282 29.01855635 0.1875 29.4375 C-4.21195331 29.87790892 -7.69823272 29.91206084 -12 29 C-14.33983604 29.22543271 -16.6018822 29.62081828 -18.9140625 30.0390625 C-21 30 -21 30 -22.7734375 28.5234375 C-23.17820313 28.02070313 -23.58296875 27.51796875 -24 27 C-24.680625 27.66 -25.36125 28.32 -26.0625 29 C-29.6868294 31.46762853 -31.697683 31.56823055 -36 31 C-36.66 30.01 -37.32 29.02 -38 28 C-38.61488281 28.10699219 -39.22976562 28.21398437 -39.86328125 28.32421875 C-40.67152344 28.44410156 -41.47976562 28.56398437 -42.3125 28.6875 C-43.11300781 28.81511719 -43.91351563 28.94273437 -44.73828125 29.07421875 C-47 29 -47 29 -48.71875 27.6875 C-50.30712073 25.59549952 -51.1328156 23.46814021 -52 21 C-52.804375 21.804375 -53.60875 22.60875 -54.4375 23.4375 C-58 27 -58 27 -60.375 27.375 C-61.674375 27.189375 -61.674375 27.189375 -63 27 C-64.8125 24.5 -64.8125 24.5 -66 22 C-66.37511719 22.5775 -66.75023437 23.155 -67.13671875 23.75 C-67.64847656 24.4925 -68.16023437 25.235 -68.6875 26 C-69.18636719 26.7425 -69.68523437 27.485 -70.19921875 28.25 C-72 30 -72 30 -74.64453125 30.3125 C-77 30 -77 30 -78 29 C-78.07313567 26.46950598 -78.09247527 23.96695163 -78.0625 21.4375 C-78.05798828 20.72658203 -78.05347656 20.01566406 -78.04882812 19.28320312 C-78.03700864 17.52209987 -78.01907263 15.76103964 -78 14 C-76.35 14 -74.7 14 -73 14 C-72 17 -72 17 -72 20 C-71.278125 19.154375 -70.55625 18.30875 -69.8125 17.4375 C-67 15 -67 15 -64.375 15 C-61.94819593 16.02181224 -60.66422762 16.98540867 -59 19 C-58.29875 18.34 -57.5975 17.68 -56.875 17 C-53.54170381 14.68118526 -51.97357645 14.47018981 -48 15 C-45.53721199 17.46278801 -45.00228745 19.70676982 -44 23 C-38.50684706 23.04255513 -38.50684706 23.04255513 -34.015625 20.22265625 C-32.8233434 18.81382778 -31.66350124 17.3766964 -30.54296875 15.91015625 C-28.67422603 13.59670007 -27.05783121 12.1235882 -24.02734375 11.76953125 C-18.22222222 11.88888889 -18.22222222 11.88888889 -16 13 C-16.33 14.32 -16.66 15.64 -17 17 C-19.97 17.33 -22.94 17.66 -26 18 C-26 18.66 -26 19.32 -26 20 C-26 20.33 -26 20.66 -26 21 C-25.01 20.34 -24.02 19.68 -23 19 C-20.3125 19.375 -20.3125 19.375 -18 20 C-18 21.65 -18 23.3 -18 25 C-16.35 24.67 -14.7 24.34 -13 24 C-13.495 23.01 -13.495 23.01 -14 22 C-14.52597165 14.50490404 -13.23543841 8.25154678 -8.9375 2 C-5.79372272 -1.24518945 -4.25941255 -1.20137277 0 0 Z M-5 6 C-7.41685712 10.22949995 -8.34833144 13.12335991 -8 18 C-5.95780294 16.30820672 -5.08206694 15.36272334 -4.48828125 12.73828125 C-4.43027344 11.93777344 -4.37226563 11.13726562 -4.3125 10.3125 C-4.21388672 9.10013672 -4.21388672 9.10013672 -4.11328125 7.86328125 C-4.07589844 7.24839844 -4.03851563 6.63351563 -4 6 C-4.33 6 -4.66 6 -5 6 Z " fill="#000000" transform="translate(199,102)"/>
<path d="M0 0 C1.875 1.4375 1.875 1.4375 3 4 C3.03826461 7.07756812 2.76602413 10.0165376 2 13 C1.34 13.66 0.68 14.32 0 15 C0.67546875 15.15855469 1.3509375 15.31710938 2.046875 15.48046875 C6.29703518 16.5921436 9.32453643 17.38886629 12.625 20.375 C14.14386312 23.27464777 14.50819083 24.78145805 14 28 C12 31 12 31 10.1171875 31.46875 C4.45348312 31.54768665 1.50488283 30.34562353 -3.08984375 27.12109375 C-6.12087538 25.34214471 -8.59104281 25.54976037 -12 26 C-14.64183025 26.59525026 -14.64183025 26.59525026 -17 28 C-20.52382598 35.38439983 -20.38329602 43.99337212 -20 52 C-22.8125 51.875 -22.8125 51.875 -26 51 C-29.05500025 46.72299965 -29.38968181 43.16328401 -29 38 C-28.67 37.01 -28.34 36.02 -28 35 C-28.03083598 33.08256252 -28.09755549 31.16557494 -28.1875 29.25 C-28.23615207 23.50905552 -27.53707866 20.51960051 -24 16 C-20.65604473 13.34789754 -17.13693443 13.70968881 -13 14 C-10.0625 15 -10.0625 15 -8 16 C-8.66 15.01 -9.32 14.02 -10 13 C-10.46193077 8.01114768 -10.06738634 5.01119752 -7 1 C-4.4254716 -0.2872642 -2.85291355 -0.34791629 0 0 Z " fill="#000000" transform="translate(51,72)"/>
<path d="M0 0 C0.82306641 0.00064453 1.64613281 0.00128906 2.49414062 0.00195312 C8.54686202 0.04686202 8.54686202 0.04686202 9.6875 1.1875 C11.83136657 1.34608842 13.98016838 1.43879298 16.12890625 1.50390625 C17.43408203 1.54580078 18.73925781 1.58769531 20.08398438 1.63085938 C21.4726533 1.67067608 22.86132522 1.71038825 24.25 1.75 C25.64259183 1.79317989 27.03517028 1.836794 28.42773438 1.88085938 C31.84754801 1.98735876 35.26743763 2.08936923 38.6875 2.1875 C38.6875 3.5075 38.6875 4.8275 38.6875 6.1875 C34.3975 6.1875 30.1075 6.1875 25.6875 6.1875 C26.0175 13.4475 26.3475 20.7075 26.6875 28.1875 C24.7075 28.1875 22.7275 28.1875 20.6875 28.1875 C19.48720092 25.78690183 19.57290257 24.29389351 19.58984375 21.6171875 C19.59306641 20.72128906 19.59628906 19.82539062 19.59960938 18.90234375 C19.61217773 17.49662109 19.61217773 17.49662109 19.625 16.0625 C19.62951172 15.11761719 19.63402344 14.17273438 19.63867188 13.19921875 C19.65047643 10.86191613 19.66694241 8.52473939 19.6875 6.1875 C18.68847656 6.19910156 17.68945312 6.21070312 16.66015625 6.22265625 C15.36980469 6.23167969 14.07945313 6.24070312 12.75 6.25 C11.46222656 6.26160156 10.17445312 6.27320312 8.84765625 6.28515625 C5.6875 6.1875 5.6875 6.1875 4.6875 5.1875 C3.00566052 4.95462992 1.3162584 4.77485834 -0.375 4.625 C-1.29410156 4.54121094 -2.21320313 4.45742187 -3.16015625 4.37109375 C-4.22556641 4.28021484 -4.22556641 4.28021484 -5.3125 4.1875 C-5.6425 6.8275 -5.9725 9.4675 -6.3125 12.1875 C-5.11625 11.8575 -3.92 11.5275 -2.6875 11.1875 C0.84541497 10.29484177 4.02829109 10.00453955 7.6875 10.1875 C7.6875 11.5075 7.6875 12.8275 7.6875 14.1875 C-0.2325 15.6725 -0.2325 15.6725 -8.3125 17.1875 C-8.6425 20.1575 -8.9725 23.1275 -9.3125 26.1875 C-7.37327578 25.73651762 -5.43616406 25.27644441 -3.5 24.8125 C-2.42105469 24.55726563 -1.34210938 24.30203125 -0.23046875 24.0390625 C2.84283343 23.30017119 2.84283343 23.30017119 5.6875 21.1875 C7.875 21.5625 7.875 21.5625 9.6875 22.1875 C9.5 24 9.5 24 8.6875 26.1875 C3.51456632 29.9623435 -0.77470242 30.31287798 -7.0625 30.25 C-8.23296875 30.24097656 -9.4034375 30.23195312 -10.609375 30.22265625 C-11.50140625 30.21105469 -12.3934375 30.19945312 -13.3125 30.1875 C-15.2203584 27.0125906 -15.4734041 25.08164789 -14.9375 21.4375 C-14.82664062 20.63828125 -14.71578125 19.8390625 -14.6015625 19.015625 C-14.50617188 18.41234375 -14.41078125 17.8090625 -14.3125 17.1875 C-15.6325 16.8575 -16.9525 16.5275 -18.3125 16.1875 C-17.9825 15.1975 -17.6525 14.2075 -17.3125 13.1875 C-15.6625 13.1875 -14.0125 13.1875 -12.3125 13.1875 C-11.9825 10.8775 -11.6525 8.5675 -11.3125 6.1875 C-12.9625 6.1875 -14.6125 6.1875 -16.3125 6.1875 C-16.1875 4.3125 -16.1875 4.3125 -15.3125 2.1875 C-10.22878172 -0.1174402 -5.46079766 -0.08320381 0 0 Z " fill="#000000" transform="translate(84.3125,103.8125)"/>
<path d="M0 0 C2.28807758 0.44812579 4.57435752 0.90365538 6.859375 1.3671875 C9.11735635 1.82215389 11.37815692 2.26321023 13.640625 2.6953125 C14.87296875 2.94023438 16.1053125 3.18515625 17.375 3.4375 C19.11910156 3.77587891 19.11910156 3.77587891 20.8984375 4.12109375 C23.96595292 4.9903519 25.71342313 5.80709013 28 8 C28.5625 10.4375 28.5625 10.4375 28 13 C24.28451958 16.95518883 19.10344518 19.28363561 14 21 C12.68 21 11.36 21 10 21 C10 24.96 10 28.92 10 33 C8.35 33 6.7 33 5 33 C2.68809274 24.33034778 4.16709849 15.60809101 6 7 C3.69 6.01 1.38 5.02 -1 4 C-0.67 2.68 -0.34 1.36 0 0 Z M11 7 C10.67 10.3 10.34 13.6 10 17 C13.96 15.35 17.92 13.7 22 12 C21.67 11.01 21.34 10.02 21 9 C17.7 8.34 14.4 7.68 11 7 Z " fill="#000000" transform="translate(38,102)"/>
<path d="M0 0 C4.24558851 1.6579488 6.82190852 5.02262666 9.140625 8.8359375 C9.890625 12.1484375 9.890625 12.1484375 9.140625 14.8359375 C7.078125 16.8359375 7.078125 16.8359375 4.140625 17.8359375 C-0.49066391 17.33070598 -3.16372727 15.91121221 -6.296875 12.5859375 C-8.29316999 10.02384767 -8.85170259 8.88026699 -9.421875 5.5859375 C-8.859375 2.8359375 -8.859375 2.8359375 -7.859375 0.8984375 C-5.19272931 -0.51821802 -2.94612257 -0.49102043 0 0 Z " fill="#000000" transform="translate(15.859375,75.1640625)"/>
<path d="M0 0 C3.6680489 0.67372327 4.810413 1.64312796 7.0625 4.5625 C8.54530019 9.01090058 8.5547756 12.94502304 7.1875 17.4375 C6.0625 19.5625 6.0625 19.5625 4.0625 20.5625 C1.125 20.9375 1.125 20.9375 -1.9375 20.5625 C-3.75 18.1875 -3.75 18.1875 -4.9375 15.5625 C-5.2675 14.9025 -5.5975 14.2425 -5.9375 13.5625 C-6.21421956 9.34252671 -6.29684095 6.52074254 -4.8125 2.5625 C-2.9375 0.5625 -2.9375 0.5625 0 0 Z " fill="#000000" transform="translate(30.9375,64.4375)"/>
<path d="M0 0 C2.125 1.8125 2.125 1.8125 3 4 C2.9375 6.625 2.9375 6.625 2 9 C0.0583229 10.70867585 -1.33911864 11.00135705 -3.90234375 10.99609375 C-7.09072062 10.71703656 -9.59760057 10.19113973 -12.5 8.8125 C-14 7 -14 7 -14.5625 4 C-14 1 -14 1 -12.0625 -1 C-7.66238624 -2.43677184 -4.26040977 -1.67139153 0 0 Z " fill="#000000" transform="translate(20,97)"/>
<path d="M0 0 C-0.52835511 4.07690223 -1.64675717 6.25617734 -4.375 9.3125 C-4.98085937 10.00988281 -5.58671875 10.70726563 -6.2109375 11.42578125 C-8 13 -8 13 -11 13 C-9.55079575 9.61852341 -7.62738345 7.54262915 -5 5 C-4.67 4.34 -4.34 3.68 -4 3 C-8.62 3.66 -13.24 4.32 -18 5 C-18 4.01 -18 3.02 -18 2 C-16.12612523 1.6603981 -14.25083303 1.32861309 -12.375 1 C-11.33085937 0.814375 -10.28671875 0.62875 -9.2109375 0.4375 C-6.09425135 0.01284203 -3.14069188 -0.07545206 0 0 Z " fill="#000000" transform="translate(219,85)"/>
<path d="M0 0 C5.8490566 1.16981132 5.8490566 1.16981132 8 4 C8 4.66 8 5.32 8 6 C9.32 6.66 10.64 7.32 12 8 C12 8.66 12 9.32 12 10 C11.01 10 10.02 10 9 10 C9 9.34 9 8.68 9 8 C8.38125 7.71125 7.7625 7.4225 7.125 7.125 C5 6 5 6 3 4 C2.67 6.64 2.34 9.28 2 12 C1.34 12 0.68 12 0 12 C0 8.04 0 4.08 0 0 Z " fill="#000000" transform="translate(181,79)"/>
<path d="M0 0 C0 0.66 0 1.32 0 2 C-4.26616316 3.13764351 -7.56486311 4 -12 4 C-12 3.34 -12 2.68 -12 2 C-7.82262526 0.40861915 -4.46839215 -0.21278058 0 0 Z " fill="#000000" transform="translate(218,101)"/>
<path d="M0 0 C-2 2 -2 2 -3.9453125 2.1953125 C-5.96354167 2.13020833 -7.98177083 2.06510417 -10 2 C-10 1.34 -10 0.68 -10 0 C-3.375 -1.125 -3.375 -1.125 0 0 Z " fill="#000000" transform="translate(187,107)"/>
<path d="M0 0 C5.75 -0.125 5.75 -0.125 8 1 C8 1.66 8 2.32 8 3 C5.36 2.67 2.72 2.34 0 2 C0 1.34 0 0.68 0 0 Z " fill="#000000" transform="translate(205,109)"/>
<path d="M0 0 C2.97 0 5.94 0 9 0 C9 0.66 9 1.32 9 2 C6.36 2 3.72 2 1 2 C0.67 1.34 0.34 0.68 0 0 Z " fill="#000000" transform="translate(176,99)"/>
<path d="M0 0 C1.65 0 3.3 0 5 0 C5.33 0.66 5.66 1.32 6 2 C4.02 2 2.04 2 0 2 C0 1.34 0 0.68 0 0 Z " fill="#000000" transform="translate(207,106)"/>
<path d="M0 0 C1.65 0 3.3 0 5 0 C5 0.66 5 1.32 5 2 C3.35 2 1.7 2 0 2 C0 1.34 0 0.68 0 0 Z " fill="#000000" transform="translate(180,103)"/>
</svg>
